HIERARCHY
ROOT hip
{
	OFFSET 0.000000 0.000000 0.000000 
	CHANNELS 6 Xposition Yposition Zposition Xrotation Zrotation Yrotation
	JOINT abdomen
	{
		OFFSET 0.000000 3.402643 0.000000 
		CHANNELS 3 Xrotation Zrotation Yrotation
		JOINT chest
		{
			OFFSET 0.000000 8.438565 -0.680529 
			CHANNELS 3 Xrotation Zrotation Yrotation
			JOINT neck
			{
				OFFSET 0.000000 10.207942 -0.272212 
				CHANNELS 3 Xrotation Zrotation Yrotation
				JOINT head
				{
					OFFSET 0.000000 3.130431 0.000000 
					CHANNELS 3 Xrotation Zrotation Yrotation
					End Site
					{
						OFFSET 0.000000 3.130435 0.000000 
					}
				}
			}
			JOINT lCollar
			{
				OFFSET 3.470700 6.669187 -0.816635 
				CHANNELS 3 Yrotation Zrotation Xrotation
				JOINT lShldr
				{
					OFFSET 3.198488 0.000000 0.000000 
					CHANNELS 3 Zrotation Yrotation Xrotation
					JOINT lForeArm
					{
						OFFSET 10.139888 0.000000 0.000000 
						CHANNELS 3 Yrotation Zrotation Xrotation
						JOINT lHand
						{
							OFFSET 8.370511 0.000000 0.000000 
							CHANNELS 3 Zrotation Yrotation Xrotation
							End Site
							{
								OFFSET 4.083176 0.000000 0.000000 
							}
						}
					}
				}
			}
			JOINT rCollar
			{
				OFFSET -3.470700 6.669187 -0.816635 
				CHANNELS 3 Yrotation Zrotation Xrotation
				JOINT rShldr
				{
					OFFSET -3.198488 0.000000 0.000000 
					CHANNELS 3 Zrotation Yrotation Xrotation
					JOINT rForeArm
					{
						OFFSET -10.139888 0.000000 0.000000 
						CHANNELS 3 Yrotation Zrotation Xrotation
						JOINT rHand
						{
							OFFSET -8.370511 0.000000 0.000000 
							CHANNELS 3 Zrotation Yrotation Xrotation
							End Site
							{
								OFFSET -4.083176 0.000000 0.000000 
							}
						}
					}
				}
			}
		}
	}
	JOINT lThigh
	{
		OFFSET 5.308129 -1.633274 1.361059 
		CHANNELS 3 Xrotation Zrotation Yrotation
		JOINT lShin
		{
			OFFSET -2.041588 -20.007561 0.000000 
			CHANNELS 3 Xrotation Zrotation Yrotation
			JOINT lFoot
			{
				OFFSET 0.000000 -19.190928 -1.224953 
				CHANNELS 3 Xrotation Yrotation Zrotation
				End Site
				{
					OFFSET 0.000000 -2.449906 4.627600 
				}
			}
		}
	}
	JOINT rThigh
	{
		OFFSET -5.308129 -1.633274 1.361059 
		CHANNELS 3 Xrotation Zrotation Yrotation
		JOINT rShin
		{
			OFFSET 2.041588 -20.007561 0.000000 
			CHANNELS 3 Xrotation Zrotation Yrotation
			JOINT rFoot
			{
				OFFSET 0.000000 -19.190928 -1.224953 
				CHANNELS 3 Xrotation Yrotation Zrotation
				End Site
				{
					OFFSET 0.000000 -2.449906 4.627600 
				}
			}
		}
	}
}
MOTION
Frames: 8
Frame Time: 0.016667
28.098038 34.293152 61.075974 1.384130 -5.838150 -141.703995 -21.169300 0.724628 -1.516180 10.938800 8.079730 -1.333890 1.761310 9.048330 -18.815100 7.729380 8.880270 -9.015040 2.000000 -2.000000 0.000000 99.624199 135.393005 19.808300 105.635002 -0.175370 0.150867 0.207766 -0.160416 132.121002 -2.000000 2.000000 0.000000 19.054399 54.104099 126.514999 -17.275600 0.345396 0.040603 -0.063812 -0.044390 -117.195000 -5.014166 3.661639 3.193339 60.722969 2.388548 3.548025 -39.543079 27.809107 24.006357 -47.496719 -20.427389 3.413591 51.673244 -1.695346 -3.577127 1.560111 8.935277 -0.318427 
28.223969 33.870987 60.715591 1.555830 -7.370360 -143.824005 -20.460300 0.665680 -0.477647 10.669200 7.803750 -0.896142 0.376811 8.798900 -18.966700 7.295480 8.972940 -8.998310 2.000000 -2.000000 0.000000 -81.914200 42.798801 -160.910004 105.362000 -0.176043 0.151054 0.194292 -0.169841 136.936005 -2.000000 2.000000 0.000000 16.298800 53.967899 126.125999 -18.437700 0.344546 0.043242 -0.063221 -0.042713 -117.830002 -3.107962 2.624331 5.033433 60.983959 2.439303 3.531645 -40.634876 28.336555 25.008139 -49.403255 -20.689960 4.010757 54.942696 -1.486907 -3.744965 0.836004 11.130898 -0.161736 
28.340015 33.558014 60.345779 2.002120 -8.042030 -145.477005 -19.913300 0.841607 0.297533 10.469000 7.520020 -0.531741 -0.233923 7.952230 -18.222799 6.947400 8.771730 -8.614260 2.000000 -2.000000 0.000000 -82.748100 40.739101 -160.498993 105.079002 -0.176742 0.151244 0.182030 -0.158774 141.339996 -2.000000 2.000000 0.000000 14.121500 53.952202 123.343002 -19.033400 0.344090 0.044588 -0.071196 -0.061712 -110.467003 -1.460974 2.905361 6.602091 60.882191 2.515468 3.519195 -40.788784 28.229092 24.986593 -50.218437 -20.682619 2.801009 56.897064 -1.326780 -3.840453 0.262506 12.308969 0.039703 
28.469652 33.533524 59.969330 1.750120 -6.666840 -146.112000 -19.747101 1.139120 0.618215 10.896300 6.894000 -0.262050 0.996073 6.570660 -16.262199 7.186910 8.037950 -7.710210 2.000000 -2.000000 0.000000 -82.829903 38.465000 -159.940994 104.542000 -0.178070 0.151596 0.177198 -0.167763 143.087997 -2.000000 2.000000 0.000000 13.474100 53.943501 122.514999 -21.640900 0.341928 0.050422 -0.070105 -0.059476 -111.355003 -1.768353 4.923511 7.533475 60.534389 2.615103 3.495527 -39.755337 28.132214 24.053455 -50.982391 -20.044674 0.134854 57.263561 -1.238782 -3.888279 0.063562 12.558838 0.208453 
28.647257 33.612270 59.560871 1.343060 -5.027920 -145.382004 -19.982700 1.265320 0.537472 10.890200 6.200470 -0.203450 2.625000 5.324750 -12.983500 7.486010 7.391520 -6.163460 2.000000 -2.000000 0.000000 -81.975800 36.845901 -159.018997 103.790001 -0.179934 0.152066 0.176390 -0.167618 143.380997 -2.000000 2.000000 0.000000 15.166000 53.175800 126.916000 -27.217100 0.336427 0.062532 -0.057898 -0.033337 -124.930000 -2.786735 7.380741 7.309870 60.068256 2.719991 3.456866 -38.706249 27.267145 22.704552 -51.171135 -19.780840 -2.415486 57.099335 -1.199754 -3.902403 -0.873282 12.341996 0.489651 
28.893276 33.684956 59.198357 0.861326 -3.856990 -143.378998 -20.168900 1.159030 0.281778 10.648500 5.426160 -0.271932 3.669420 3.362960 -9.223460 7.596020 6.552160 -4.346070 2.000000 -2.000000 0.000000 -80.476196 35.121601 -157.145004 103.360001 -0.181001 0.152324 0.174992 -0.167358 143.889008 -2.000000 2.000000 0.000000 17.824499 51.262199 133.003006 -35.752300 0.325801 0.079884 -0.054440 0.003637 -138.220993 -3.979604 9.270192 5.771430 59.359570 2.783257 3.418257 -37.480892 26.459389 21.322964 -50.992767 -20.253273 -4.093539 57.238209 -1.172027 -3.931592 -2.186725 11.519457 0.732121 
29.194120 33.819984 58.864265 0.488891 -2.861220 -140.796005 -20.148500 1.101760 0.407161 10.497700 4.375330 -0.130770 3.426460 0.829339 -5.318120 7.707680 5.859150 -2.394610 2.000000 -2.000000 0.000000 -78.710503 32.148102 -154.837997 103.046997 -0.181779 0.152507 0.169558 -0.166223 145.871002 -2.000000 2.000000 0.000000 20.103100 47.580601 138.679993 -45.742599 0.310261 0.097922 -0.055560 0.019261 -143.815994 -5.530497 10.932936 3.744239 58.757664 2.864599 3.386329 -36.048832 25.796883 20.042681 -50.658447 -20.772715 -5.381378 57.600780 -1.140305 -3.930935 -2.858213 9.876198 0.791119 
29.597752 33.985012 58.567463 0.185642 -1.835930 -137.906998 -20.057501 1.184160 0.960883 10.307000 3.113670 0.248118 2.615350 -1.743920 -1.266670 7.169460 4.732370 -0.431413 2.000000 -2.000000 0.000000 -76.915100 27.933201 -152.994003 103.867996 -0.179740 0.152019 0.162635 -0.164488 148.419998 -2.000000 2.000000 0.000000 22.122000 42.767200 143.406998 -56.289600 0.290727 0.113733 -0.056628 0.026649 -146.481995 -7.493106 12.483418 1.487052 58.186176 2.916888 3.346956 -34.529064 25.147911 18.710636 -50.308102 -20.761414 -5.731817 57.807949 -1.113609 -3.957256 -3.184672 7.142194 0.746440 
